<svg width="29" height="27" viewBox="0 0 29 27" fill="none" xmlns="http://www.w3.org/2000/svg">
<g id="arkIcon">
<path id="Subtract" fill-rule="evenodd" clip-rule="evenodd" d="M12.6736 25.3692C20.1228 25.8074 26.4732 20.8646 26.8576 14.3291C27.2421 7.79365 21.5151 2.14033 14.0659 1.70211C11.4047 1.54555 8.88364 2.07578 6.72479 3.12007C8.2904 2.62108 10.0068 2.39332 11.793 2.4984C18.5721 2.89721 23.7901 7.93913 23.4477 13.7599C23.1052 19.5806 17.3321 23.9759 10.553 23.5771C7.33489 23.3878 4.46858 22.1521 2.3819 20.2836C4.69305 23.1498 8.39991 25.1178 12.6736 25.3692Z" fill="#F8545C"/>
<path id="Subtract_2" fill-rule="evenodd" clip-rule="evenodd" d="M2.67571 6.45874C0.524918 7.98153 -0.554086 12.0324 0.284707 15.1358C1.79871 18.535 6.30546 19.849 10.2661 19.7542C15.2149 19.7542 18.1506 16.9941 18.1506 13.3874C18.1506 10.1162 15.8021 6.05334 6.40776 6.05334C5.14159 6.05566 3.88305 6.19688 2.67571 6.45874ZM1.79431 12.1467C2.4477 11.3722 3.35496 10.9309 4.30752 11.0305C5.26002 11.1302 6.05626 11.7497 6.53522 12.6425C6.60187 10.7317 5.74524 9.15042 4.5176 9.02199C3.28994 8.89355 2.12455 10.2634 1.79431 12.1467ZM11.896 11.9666C10.9435 11.8669 10.0363 12.3082 9.38293 13.0826C9.71316 11.1992 10.8786 9.82938 12.1062 9.95782C13.334 10.0863 14.1906 11.6678 14.1238 13.5788C13.6449 12.6858 12.8486 12.0662 11.896 11.9666Z" fill="#F8545C"/>
</g>
</svg>
